<svg xmlns="http://www.w3.org/2000/svg" width="489" height="505" fill="none" viewBox="0 0 489 505">
  <path fill="#F0F0F0" d="M127.283 28.724c17.406-20.489 45.647-33.4 71.684-26.706a123.867 123.867 0 00-46.635 71.113c-2.531 10.987-4.201 23.47-13.122 30.366-5.55 4.291-13.014 5.464-19.986 4.685-6.972-.779-13.608-3.323-20.155-5.844l-1.74.193c4.378-26.525 12.549-53.319 29.954-73.807z"/>
  <path fill="#fff" d="M198.901 2.578a105.875 105.875 0 00-54.686 35.388 45.599 45.599 0 00-7.395 12.222 26.148 26.148 0 00-1.213 13.708c.684 4.3 1.883 8.62 1.51 13.013a16.004 16.004 0 01-6.514 11.358c-4.461 3.425-9.887 5.044-15.249 6.442-5.952 1.552-12.16 3.07-16.944 7.166-.58.497-1.316-.432-.737-.927 8.324-7.127 20.145-6.523 29.417-11.777 4.327-2.451 7.941-6.222 8.72-11.295.68-4.436-.552-8.892-1.283-13.24a27.912 27.912 0 01.687-13.448 42.143 42.143 0 016.899-12.46 102.705 102.705 0 0123.391-21.987 107.75 107.75 0 0133.229-15.336c.735-.197.898.978.168 1.173z"/>
  <path fill="#fff" d="M148.415 32.146a15.883 15.883 0 01-.985-20.545c.467-.602 1.425.096.957.699a14.709 14.709 0 00.955 19.108c.524.555-.407 1.289-.927.738zM134.972 61.761a30.615 30.615 0 0021.102-7.246c.581-.494 1.318.434.737.928a31.844 31.844 0 01-21.974 7.495c-.763-.034-.624-1.211.135-1.177zM175.928 11.313a8.992 8.992 0 007.362 4.311c.764.025.624 1.202-.134 1.178a10.08 10.08 0 01-8.155-4.752.61.61 0 01.095-.832.595.595 0 01.832.095z"/>
  <path fill="#F0F0F0" d="M237.683 84.396c-.477-.002-.954-.004-1.437.002-6.413.008-12.815.536-19.142 1.58-.491.074-.987.155-1.474.242a124.832 124.832 0 00-43.022 16.163 121.264 121.264 0 00-14.974 10.724c-6.508 5.454-13.13 11.886-20.833 14.787-.8.311-1.619.573-2.451.784L97.7 104.639c-.057-.096-.118-.184-.175-.281l-1.507-.893c.229-.221.471-.445.7-.665.132-.129.272-.252.405-.381.09-.084.181-.167.259-.248.03-.028.06-.056.085-.076.077-.081.157-.148.229-.221 1.35-1.255 2.71-2.503 4.082-3.744.005-.008.005-.008.019-.011 10.477-9.429 21.834-18.065 34.14-24.703.371-.2.746-.408 1.133-.596a115.665 115.665 0 0117.332-7.48c3.273-1.094 6.6-2.022 9.967-2.78a85.035 85.035 0 0126.536-1.658c17.697 1.682 34.659 9.004 45.927 22.457.288.345.568.684.851 1.037z"/>
  <path fill="#fff" d="M237.295 84.807a105.87 105.87 0 00-64.97-4.669 45.594 45.594 0 00-13.263 5.305 26.149 26.149 0 00-9.222 10.215c-2.042 3.846-3.686 8.017-6.628 11.3a16.01 16.01 0 01-12.04 5.147c-5.624.049-10.931-1.926-16.053-4.038-5.688-2.344-11.558-4.869-17.844-4.479-.762.047-.79-1.137-.03-1.184 10.936-.679 20.011 6.92 30.578 8.308 4.931.647 10.086-.187 13.762-3.769 3.215-3.132 4.913-7.431 6.948-11.344a27.908 27.908 0 018.645-10.323 42.152 42.152 0 0113.01-5.796 102.71 102.71 0 0131.914-3.472 107.748 107.748 0 0135.765 7.761c.705.285.128 1.322-.572 1.038z"/>
  <path fill="#fff" d="M179.183 78.019a15.881 15.881 0 0111.583-16.997c.735-.2 1.08.935.343 1.135a14.71 14.71 0 00-10.742 15.832c.085.757-1.1.783-1.184.03zM213.693 77.95a9 9 0 003.283 7.875c.594.48-.226 1.335-.817.859a10.079 10.079 0 01-3.65-8.703.613.613 0 01.577-.608.597.597 0 01.607.578z"/>
  <path fill="#CACACA" d="M.424 389.606h487.181V107.557a7.979 7.979 0 00-7.971-7.97H8.395a7.981 7.981 0 00-7.971 7.97v282.049z"/>
  <path fill="#fff" d="M472.553 110.611H15.476v259.49h457.077v-259.49z"/>
  <g filter="url(#filter0_i)">
    <path fill="#3F3D56" d="M0 381.973v34.805a10.988 10.988 0 0010.987 10.988h179.815v68.689h-2.389a1.422 1.422 0 00-1.319.881 1.437 1.437 0 00-.108.546v4.777a1.432 1.432 0 001.427 1.428H300.04a1.423 1.423 0 001.318-.881c.072-.174.109-.359.109-.547v-4.777c0-.188-.037-.373-.109-.546a1.408 1.408 0 00-.772-.773 1.422 1.422 0 00-.546-.108h-2.389v-68.689h179.815a10.99 10.99 0 0010.151-6.783c.552-1.333.836-2.762.836-4.205v-34.805H0z"/>
  </g>
  <path stroke="#000" d="M191.302 427.766v-.5H10.987A10.488 10.488 0 01.5 416.778v-34.305h487.453v34.305a10.49 10.49 0 01-6.474 9.69 10.485 10.485 0 01-4.013.798H297.151v69.689h2.889a.921.921 0 01.856.572.918.918 0 01.071.355v4.777a.918.918 0 01-.272.656.936.936 0 01-.655.272H188.413a.922.922 0 01-.656-.272.93.93 0 01-.271-.656v-4.777a.936.936 0 01.271-.656.921.921 0 01.656-.271h2.889v-69.189z"/>
  <path fill="#E6E6E6" d="M406.413 197.394H189.959a5.146 5.146 0 010-10.29h216.454a5.144 5.144 0 110 10.29zM333.785 220.62h-71.198a5.146 5.146 0 010-10.291h71.198a5.144 5.144 0 013.638 8.784 5.144 5.144 0 01-3.638 1.507zM333.785 267.731h-71.198a5.146 5.146 0 010-10.29h71.198a5.144 5.144 0 110 10.29zM333.785 291.861h-71.198a5.143 5.143 0 01-5.145-5.145 5.135 5.135 0 011.507-3.638 5.136 5.136 0 013.638-1.507h71.198a5.135 5.135 0 013.638 1.507 5.136 5.136 0 011.507 3.638 5.135 5.135 0 01-1.507 3.638 5.136 5.136 0 01-3.638 1.507zM373.715 243.845H222.657a5.146 5.146 0 010-10.29h151.058a5.144 5.144 0 110 10.29z"/>
  <path fill="#6C63FF" d="M402.81 341.266h-25.852a8.747 8.747 0 01-8.749-8.749 8.749 8.749 0 018.749-8.749h25.852a8.752 8.752 0 018.749 8.749 8.747 8.747 0 01-8.749 8.749zM121.895 277.766c24.852 0 45-20.147 45-45s-20.148-45-45-45c-24.853 0-45 20.147-45 45s20.147 45 45 45z"/>
  <defs>
    <filter id="filter0_i" width="488.453" height="126.113" x="0" y="381.973" color-interpolation-filters="sRGB" filterUnits="userSpaceOnUse">
      <feFlood flood-opacity="0" result="BackgroundImageFix"/>
      <feBlend in="SourceGraphic" in2="BackgroundImageFix" result="shape"/>
      <feColorMatrix in="SourceAlpha" result="hardAlpha" values="0 0 0 0 0 0 0 0 0 0 0 0 0 0 0 0 0 0 127 0"/>
      <feOffset dy="4"/>
      <feGaussianBlur stdDeviation="2"/>
      <feComposite in2="hardAlpha" k2="-1" k3="1" operator="arithmetic"/>
      <feColorMatrix values="0 0 0 0 0 0 0 0 0 0 0 0 0 0 0 0 0 0 0.25 0"/>
      <feBlend in2="shape" result="effect1_innerShadow"/>
    </filter>
  </defs>
</svg>
