<svg xmlns="http://www.w3.org/2000/svg" width="211" height="294" fill="none" viewBox="0 0 211 294">
  <path fill="#3F3D56" d="M209.84 238.49L154.616 84.86l1.401-.504-10.157-28.257-1.4.504-16.956-47.17A14.257 14.257 0 00109.267.84L9.434 36.726A14.256 14.256 0 00.84 54.963l11.822 32.89-2.212.851 7.547 19.597 1.77-.682 1.568 4.359-1.885.726 7.547 19.598 1.443-.556L83.176 284.02a14.234 14.234 0 0012.736 9.425 14.217 14.217 0 005.502-.832l99.832-35.885a14.275 14.275 0 008.594-18.238z"/>
  <path fill="#fff" d="M96.163 287.55a6.84 6.84 0 01-6.424-4.525L6.535 51.551a6.832 6.832 0 014.117-8.738l21.242-7.636-.032.743a7.875 7.875 0 0010.53 7.743l47.14-16.945a7.975 7.975 0 004.488-5.636 7.808 7.808 0 00-1.86-6.835l-.498-.554 21.94-7.887a6.84 6.84 0 018.74 4.118l79.384 220.846a18.144 18.144 0 01-10.926 23.188l-92.322 33.186a6.843 6.843 0 01-2.314.406z"/>
  <path fill="#6C63FF" d="M88.03 123.37c14.912 0 27-12.089 27-27 0-14.912-12.088-27-27-27s-27 12.088-27 27c0 14.911 12.088 27 27 27z"/>
  <path fill="#E6E6E6" d="M154.935 135.634l-93.502 33.61a2.362 2.362 0 11-1.598-4.445l93.503-33.61a2.357 2.357 0 011.802.09 2.364 2.364 0 011.129 3.139 2.363 2.363 0 01-1.334 1.216zM127.168 156.944L96.413 168a2.357 2.357 0 01-3.026-1.423 2.36 2.36 0 011.428-3.023l30.756-11.055a2.36 2.36 0 013.021 1.424 2.36 2.36 0 01-1.424 3.021zM134.484 177.295l-30.756 11.055a2.354 2.354 0 01-1.805-.086 2.36 2.36 0 01-1.353-2.249 2.356 2.356 0 01.77-1.635c.23-.208.498-.37.79-.475l30.756-11.055a2.36 2.36 0 013.021 1.424 2.36 2.36 0 01-1.423 3.021zM138.23 187.719l-30.755 11.055a2.363 2.363 0 11-1.598-4.445l30.756-11.055a2.36 2.36 0 111.597 4.445zM148.023 160.777l-65.252 23.455a2.361 2.361 0 11-1.598-4.445l65.253-23.455a2.36 2.36 0 111.597 4.445z"/>
  <path fill="#fff" d="M46.879 35.926a1.553 1.553 0 100-3.106 1.553 1.553 0 000 3.106z"/>
</svg>
