<svg xmlns="http://www.w3.org/2000/svg" width="365" height="396" fill="none" viewBox="0 0 365 396">
  <path fill="#3F3D56" d="M361.697 132.101l-28.94 48.7 1.1.58-9.8 18.58-2.04-1.08-6.44 10.83 1.6.92-10.5 18.18-1.82-1.05-94.43 158.92a18.275 18.275 0 01-25.021 6.37L9.856 288.741a18.27 18.27 0 01-6.37-25.02l151.27-254.58a18.276 18.276 0 0125.02-6.37l175.55 104.31a18.284 18.284 0 016.371 25.02z"/>
  <path fill="#fff" d="M191.663 383.224L15.495 278.548a5.637 5.637 0 01-1.964-7.713L165.805 14.562a5.637 5.637 0 017.713-1.964l176.168 104.677a5.632 5.632 0 011.963 7.712L199.376 381.261a5.634 5.634 0 01-7.713 1.963zM264.028 60.886a1.553 1.553 0 100-3.105 1.553 1.553 0 000 3.105z"/>
  <path fill="#E6E6E6" d="M254.417 244.465L107.36 157.086a4.079 4.079 0 01-1.961-4.081 4.068 4.068 0 016.115-2.91l147.057 87.379a4.061 4.061 0 011.432 5.58 4.068 4.068 0 01-5.586 1.411zM195.698 230.925l-48.371-28.741a4.07 4.07 0 01-1.948-4.077 4.072 4.072 0 013.022-3.36 4.066 4.066 0 013.08.446l48.371 28.741a4.07 4.07 0 011.948 4.077 4.078 4.078 0 01-1.59 2.675 4.067 4.067 0 01-4.512.239zM176.68 262.932l-48.371-28.741a4.065 4.065 0 114.154-6.991l48.371 28.741a4.07 4.07 0 011.948 4.077 4.078 4.078 0 01-1.59 2.675 4.067 4.067 0 01-4.512.239zM166.94 279.326l-48.372-28.741a4.079 4.079 0 01-1.87-2.493 4.042 4.042 0 01-.085-1.587 4.065 4.065 0 016.109-2.911l48.371 28.741a4.061 4.061 0 011.962 4.081 4.055 4.055 0 01-1.593 2.682 4.066 4.066 0 01-4.522.228zM213.451 262.823l-102.627-60.979a4.067 4.067 0 014.154-6.991l102.627 60.979a4.076 4.076 0 011.875 2.493 4.068 4.068 0 01-2.943 4.954 4.07 4.07 0 01-3.086-.456z"/>
  <path fill="#6C63FF" d="M193.89 340.755l-17.563-10.436a6.915 6.915 0 011.829-12.639 6.914 6.914 0 015.234.751l17.564 10.436a6.914 6.914 0 01-7.064 11.888zM226.659 171.314c19.882 0 36-16.117 36-36 0-19.882-16.118-36-36-36-19.883 0-36 16.118-36 36 0 19.883 16.117 36 36 36z"/>
</svg>
